<svg width="408" height="408" viewBox="0 0 408 408" fill="none" xmlns="http://www.w3.org/2000/svg">
<circle cx="204" cy="204" r="204" fill="#3452FF"/>
<path d="M103.512 266.008C99.7357 263.143 96.6107 259.562 94.1367 255.266C91.793 250.969 89.9049 246.411 88.4727 241.594C87.1706 236.776 86.2591 231.828 85.7383 226.75C85.3477 221.542 85.2174 216.594 85.3477 211.906C86.5195 208.391 87.9518 205.201 89.6445 202.336C91.3372 199.341 93.2253 196.542 95.3086 193.938C97.3919 191.203 99.5404 188.664 101.754 186.32C104.098 183.846 106.376 181.372 108.59 178.898C109.371 178.898 110.087 179.094 110.738 179.484C111.259 178.052 112.04 176.815 113.082 175.773C114.124 174.732 115.23 173.82 116.402 173.039C117.574 172.128 118.746 171.281 119.918 170.5C121.09 169.589 122.066 168.547 122.848 167.375C126.103 166.594 128.967 165.487 131.441 164.055C134.046 162.622 136.52 161.06 138.863 159.367C141.207 157.674 143.616 156.112 146.09 154.68C148.564 153.247 151.428 152.141 154.684 151.359C155.855 150.057 157.288 148.951 158.98 148.039C160.803 147.128 162.561 146.281 164.254 145.5C166.077 144.719 167.77 143.872 169.332 142.961C171.025 142.049 172.392 140.812 173.434 139.25C174.215 140.292 175.322 140.682 176.754 140.422C178.186 140.031 179.488 139.641 180.66 139.25C181.441 139.12 182.092 139.25 182.613 139.641C183.134 140.031 183.59 140.487 183.98 141.008C184.501 141.398 184.892 141.659 185.152 141.789C185.543 141.919 185.934 141.529 186.324 140.617C187.366 140.747 187.626 141.203 187.105 141.984C186.715 142.766 186.454 143.286 186.324 143.547C187.626 143.286 188.668 143.547 189.449 144.328C190.361 144.979 191.728 145.435 193.551 145.695C194.202 146.346 194.397 146.867 194.137 147.258C193.876 147.648 193.681 148.299 193.551 149.211C198.238 150.643 201.233 152.922 202.535 156.047C203.837 159.042 203.967 162.232 202.926 165.617C201.884 168.872 199.931 171.932 197.066 174.797C194.332 177.531 191.272 179.354 187.887 180.266C183.85 181.307 180.074 182.349 176.559 183.391C173.173 184.432 169.853 185.604 166.598 186.906C163.473 188.208 160.478 189.771 157.613 191.594C154.879 193.286 152.47 195.305 150.387 197.648C146.741 198.69 143.421 200.122 140.426 201.945C137.561 203.768 134.827 205.786 132.223 208C129.749 210.214 127.34 212.557 124.996 215.031C122.652 217.375 120.309 219.719 117.965 222.062C117.965 224.276 117.574 225.969 116.793 227.141C116.012 228.312 115.165 229.484 114.254 230.656C114.514 233.13 115.035 235.279 115.816 237.102C116.728 238.794 117.639 240.552 118.551 242.375C128.967 245.5 139.97 247.453 151.559 248.234C163.277 248.885 174.866 249.276 186.324 249.406C187.496 250.969 188.798 252.466 190.23 253.898C191.793 255.201 193.16 256.568 194.332 258C195.634 259.432 196.611 261.125 197.262 263.078C198.043 264.901 198.238 267.115 197.848 269.719C195.634 271.932 193.225 274.081 190.621 276.164C188.017 278.117 185.413 280.07 182.809 282.023C181.637 282.154 180.204 282.154 178.512 282.023C176.949 281.893 175.257 281.828 173.434 281.828C171.741 281.828 169.983 281.958 168.16 282.219C166.467 282.349 164.84 282.74 163.277 283.391C155.074 283.13 146.676 282.154 138.082 280.461C129.488 278.638 121.546 276.49 114.254 274.016C112.822 272.323 111.324 270.76 109.762 269.328C108.199 267.766 106.116 266.659 103.512 266.008ZM216.207 243.352C212.301 241.138 209.306 238.013 207.223 233.977C205.139 229.94 203.967 226.099 203.707 222.453C204.098 219.328 204.944 216.919 206.246 215.227C207.418 213.404 208.85 211.971 210.543 210.93C212.236 209.758 213.993 208.911 215.816 208.391C217.639 207.74 219.397 207.219 221.09 206.828L224.02 207.805C224.671 208.456 225.322 209.042 225.973 209.562C226.754 210.083 227.47 210.604 228.121 211.125C229.423 210.604 230.204 209.823 230.465 208.781C230.855 207.74 231.246 206.698 231.637 205.656C232.027 204.224 232.483 202.792 233.004 201.359C233.525 199.927 234.176 198.495 234.957 197.062C234.827 195.891 234.892 194.849 235.152 193.938C235.413 193.026 235.673 192.245 235.934 191.594C235.152 190.943 234.566 190.617 234.176 190.617C233.915 190.487 233.395 190.292 232.613 190.031C232.223 190.031 231.832 190.031 231.441 190.031C231.051 189.901 230.595 189.771 230.074 189.641C228.121 188.208 226.819 187.036 226.168 186.125C225.647 185.083 225.061 184.042 224.41 183C223.759 181.958 223.173 181.047 222.652 180.266C222.132 179.484 221.546 178.768 220.895 178.117L218.551 176.555L219.723 174.211C219.983 173.951 220.113 173.625 220.113 173.234C220.113 172.714 219.853 171.997 219.332 171.086C218.941 169.393 218.876 168.156 219.137 167.375L219.527 165.031C220.829 163.339 221.546 162.362 221.676 162.102L223.629 160.148C226.624 159.367 229.684 158.521 232.809 157.609C235.934 156.568 238.993 155.526 241.988 154.484C244.983 153.443 248.043 152.401 251.168 151.359C254.293 150.318 257.418 149.406 260.543 148.625C261.585 147.714 262.691 147.193 263.863 147.062C265.165 146.802 266.337 146.607 267.379 146.477C268.29 146.477 269.137 146.411 269.918 146.281C270.699 146.151 271.285 145.826 271.676 145.305C273.889 144.523 276.038 143.872 278.121 143.352C282.027 142.31 287.171 141.073 293.551 139.641C299.931 138.208 307.092 137.167 315.035 136.516L319.137 136.32C319.918 136.451 320.699 136.516 321.48 136.516C322.262 136.385 323.043 136.32 323.824 136.32C330.595 136.32 335.087 138.404 337.301 142.57C338.603 143.221 339.775 144.068 340.816 145.109C341.858 146.021 342.835 146.932 343.746 147.844C344.397 148.495 344.983 149.081 345.504 149.602C346.025 149.992 346.48 150.318 346.871 150.578L348.434 152.141C349.866 155.266 350.126 158.326 349.215 161.32C348.434 162.883 347.587 163.794 346.676 164.055C345.764 164.315 344.853 164.576 343.941 164.836L341.402 166.203C339.71 166.073 338.408 166.008 337.496 166.008C336.715 166.008 335.803 166.008 334.762 166.008C330.855 166.008 326.298 166.268 321.09 166.789C316.012 167.18 310.803 167.831 305.465 168.742C300.126 169.523 294.918 170.565 289.84 171.867C284.762 173.039 280.335 174.341 276.559 175.773C275.517 176.555 274.15 177.271 272.457 177.922C272.066 178.052 271.48 178.378 270.699 178.898C270.829 179.94 270.829 180.982 270.699 182.023C270.569 182.935 270.374 183.846 270.113 184.758C269.983 185.409 269.853 186.125 269.723 186.906C269.723 187.557 269.658 188.273 269.527 189.055C266.793 192.31 265.491 196.151 265.621 200.578L264.645 202.531C264.124 203.052 263.668 203.833 263.277 204.875C263.017 205.786 263.017 206.763 263.277 207.805L264.059 210.148C266.663 209.888 269.202 209.628 271.676 209.367C274.28 208.977 277.014 208.586 279.879 208.195C283.525 207.544 287.171 207.023 290.816 206.633C294.592 206.112 298.499 205.852 302.535 205.852H310.152L308.395 207.609L310.543 207.805L309.371 210.93C310.283 211.32 310.934 211.646 311.324 211.906C311.845 212.036 312.301 212.232 312.691 212.492L314.059 214.445C314.71 214.836 315.296 215.487 315.816 216.398C316.337 217.18 316.663 218.286 316.793 219.719L316.207 221.672L307.027 233.391L305.855 234.953L303.902 234.367C301.428 234.237 299.085 234.497 296.871 235.148C295.829 235.409 294.723 235.734 293.551 236.125C292.379 236.385 291.207 236.516 290.035 236.516C286.91 237.036 284.306 237.492 282.223 237.883C280.139 238.143 278.056 238.404 275.973 238.664C273.108 239.185 270.309 239.706 267.574 240.227C264.97 240.617 262.496 241.268 260.152 242.18C258.72 242.31 257.874 242.375 257.613 242.375C257.353 242.245 257.092 242.18 256.832 242.18C255.53 242.18 254.228 242.375 252.926 242.766C251.624 243.156 250.387 243.547 249.215 243.938C248.434 244.589 247.913 245.305 247.652 246.086C247.392 246.737 247.132 247.453 246.871 248.234C246.611 249.146 246.22 250.057 245.699 250.969C245.309 251.75 244.788 252.596 244.137 253.508L244.332 257.023C243.16 257.284 242.574 257.479 242.574 257.609C242.574 257.609 242.509 257.609 242.379 257.609C242.379 258.651 242.184 259.628 241.793 260.539C241.533 261.451 241.272 262.297 241.012 263.078C240.751 263.599 240.556 264.055 240.426 264.445C240.296 264.836 240.23 265.227 240.23 265.617C241.533 267.961 241.858 270.63 241.207 273.625C240.686 276.099 239.71 278.312 238.277 280.266C236.845 282.089 235.152 283.521 233.199 284.562C231.116 284.823 229.553 284.758 228.512 284.367C227.6 283.977 226.624 283.586 225.582 283.195C224.931 282.935 224.28 282.74 223.629 282.609C222.978 282.349 222.327 282.154 221.676 282.023L219.332 280.07C218.941 279.289 218.486 278.573 217.965 277.922C217.444 277.141 216.923 276.359 216.402 275.578C215.751 274.667 215.1 273.755 214.449 272.844C213.798 271.932 213.212 270.891 212.691 269.719C211.78 265.161 211.585 261.385 212.105 258.391C212.757 255.266 213.603 252.206 214.645 249.211C214.905 248.169 215.165 247.193 215.426 246.281C215.686 245.37 215.947 244.393 216.207 243.352Z" fill="white"/>
</svg>
